<svg width="1600" height="1000" viewBox="0 0 1600 1000" fill="none" xmlns="http://www.w3.org/2000/svg">
<g clip-path="url(#clip0_5127_76075)">
<g opacity="0.4">
<g filter="url(#filter0_f_5127_76075)">
<circle cx="832.379" cy="176.098" r="334.875" transform="rotate(90 832.379 176.098)" fill="url(#paint0_linear_5127_76075)"/>
</g>
<g filter="url(#filter1_f_5127_76075)">
<ellipse rx="352.5" ry="497.037" transform="matrix(0.500035 0.866006 -0.866045 0.499966 462.31 -73.0111)" fill="url(#paint1_linear_5127_76075)"/>
</g>
<g filter="url(#filter2_f_5127_76075)">
<ellipse rx="431.754" ry="779.223" transform="matrix(0.970286 -0.241961 0.241883 0.970305 -27.1299 159.552)" fill="url(#paint2_linear_5127_76075)"/>
</g>
<g filter="url(#filter3_f_5127_76075)">
<circle r="309.375" transform="matrix(-0.721479 0.692436 -0.692503 -0.721415 1222.55 136.009)" fill="url(#paint3_linear_5127_76075)"/>
</g>
<g filter="url(#filter4_f_5127_76075)">
<path d="M1158.51 54.1046C1075.08 109.939 1066.84 37.9904 1010.97 -45.4836C955.096 -128.958 872.749 -192.347 956.183 -248.181C1039.62 -304.016 1152.55 -281.61 1208.42 -198.136C1264.29 -114.662 1241.95 -1.73023 1158.51 54.1046Z" fill="#FA3A3A"/>
</g>
<g filter="url(#filter5_f_5127_76075)">
<ellipse cx="1422.63" cy="-227.779" rx="345.75" ry="402.375" transform="rotate(90 1422.63 -227.779)" fill="#BD8BFE"/>
</g>
<g filter="url(#filter6_f_5127_76075)">
<path d="M1312.14 12.836C1271.18 53.5473 1205.73 -39.3527 1082.49 -163.313C959.248 -287.274 824.888 -395.354 865.845 -436.065C906.802 -476.776 1039.91 -409.289 1163.15 -285.329C1286.39 -161.368 1353.09 -27.8752 1312.14 12.836Z" fill="#FFEBEB"/>
</g>
<g filter="url(#filter7_f_5127_76075)">
<path d="M1169.54 47.0157C1125.06 83.8334 1072.13 -10.033 966.619 -137.509C861.106 -264.985 742.959 -377.797 787.448 -414.615C831.938 -451.433 953.539 -377.94 1059.05 -250.464C1164.57 -122.988 1214.03 10.1981 1169.54 47.0157Z" fill="#6472EA"/>
</g>
<g filter="url(#filter8_f_5127_76075)">
<path d="M1227.46 -18.528C1204.19 0.730482 1144.26 -87.3338 1038.74 -214.81C933.231 -342.285 822.096 -460.9 845.367 -480.159C868.639 -499.417 973.039 -411.69 1078.55 -284.214C1184.07 -156.738 1250.74 -37.7865 1227.46 -18.528Z" fill="#9F64EA"/>
</g>
<g filter="url(#filter9_f_5127_76075)">
<ellipse cx="771.254" cy="-39.5293" rx="324.75" ry="314.25" transform="rotate(90 771.254 -39.5293)" fill="#FFB8F8"/>
</g>
<g filter="url(#filter10_f_5127_76075)">
<ellipse cx="589.504" cy="415.502" rx="168.5" ry="169.5" transform="rotate(90 589.504 415.502)" fill="#FF8C68"/>
</g>
<g filter="url(#filter11_f_5127_76075)">
<path d="M798.145 -85.2828C804.958 -251.143 1003.06 -339.522 1101.25 -362.979C1040.27 -389.802 877.881 -435.496 716.139 -403.687C513.961 -363.926 519.638 -10.8096 482.735 325.266C453.213 594.126 808.554 618.635 989.914 597.282C1000.85 572.773 1019.06 487.34 1004.42 341.675C986.129 159.595 789.629 122.043 798.145 -85.2828Z" fill="url(#paint4_radial_5127_76075)"/>
</g>
<g filter="url(#filter12_f_5127_76075)">
<path d="M766.645 -85.2828C773.458 -251.143 971.556 -339.522 1069.75 -362.979C1008.77 -389.802 846.381 -435.496 684.639 -403.687C482.461 -363.926 488.138 -10.8096 451.235 325.266C421.713 594.126 777.054 618.635 958.414 597.282C969.348 572.773 987.558 487.34 972.923 341.675C954.629 159.595 758.129 122.043 766.645 -85.2828Z" fill="url(#paint5_radial_5127_76075)"/>
</g>
<g filter="url(#filter13_f_5127_76075)">
<path d="M838.298 495.223C859.443 447.686 886.963 325.353 827.883 216.314C754.034 80.0149 717.11 74.9668 610.754 -167.027" stroke="url(#paint6_linear_5127_76075)" stroke-width="40.3735" stroke-linecap="round"/>
</g>
<g filter="url(#filter14_f_5127_76075)">
<path d="M863.504 -260.029C819.055 -221.416 742.738 -123.42 793.057 -40.344C843.376 42.7324 860.988 69.8143 863.504 72.9707" stroke="url(#paint7_linear_5127_76075)" stroke-width="25.2334" stroke-linecap="round"/>
</g>
<g filter="url(#filter15_f_5127_76075)">
<path d="M742.754 165.975C768.152 188.276 829.823 262.416 845.504 345.225" stroke="url(#paint8_linear_5127_76075)" stroke-width="6.30836" stroke-linecap="round"/>
</g>
<g filter="url(#filter16_f_5127_76075)">
<path d="M1306 5.43505C1293.17 37.4103 1254.1 88.7391 1200.56 38.2518C1147.02 -12.2355 1075.55 -71.1373 1046.5 -94.2773" stroke="url(#paint9_linear_5127_76075)" stroke-width="15.1401" stroke-linecap="round"/>
</g>
<g filter="url(#filter17_f_5127_76075)">
<path d="M1086.25 13.0004C1135.73 59.672 1307.79 165.944 1363.26 80.4849C1407.63 12.1174 1383.95 -39.0321 1381.54 -80.0273" stroke="url(#paint10_linear_5127_76075)" stroke-width="31.5418" stroke-linecap="round"/>
</g>
<g opacity="0.5" filter="url(#filter18_f_5127_76075)">
<path d="M1264.75 -44.2117C1264.75 20.2765 1234.8 24.6165 1171.73 -30.6849C1132.12 -65.4142 1105.72 -85.5261 1098.25 -92.0273" stroke="url(#paint11_linear_5127_76075)" stroke-width="10.0934" stroke-linecap="round"/>
</g>
<g filter="url(#filter19_f_5127_76075)">
<path d="M941.504 -455.779C916.084 -443.159 719.565 -261.297 706.424 -191.691C686.887 -88.2017 706.424 -44.6603 733.209 1.72071" stroke="url(#paint12_linear_5127_76075)" stroke-width="22.7101" stroke-linecap="round"/>
</g>
<g filter="url(#filter20_f_5127_76075)">
<path d="M1612.75 385.723C1572.45 384.777 1406.63 385.723 1309.1 356.723C1214.89 328.711 1096.36 266.57 1022.18 147.103C971.099 64.8314 928.75 -19.0165 928.75 -71.0273" stroke="url(#paint13_linear_5127_76075)" stroke-width="58.6677" stroke-linecap="round"/>
</g>
<g style="mix-blend-mode:color-burn" filter="url(#filter21_f_5127_76075)">
<path d="M1612.75 385.723C1572.45 384.777 1406.63 385.723 1309.1 356.723C1214.89 328.711 1096.36 266.57 1022.18 147.103C971.099 64.8314 928.75 -19.0165 928.75 -71.0273" stroke="url(#paint14_linear_5127_76075)" stroke-width="58.6677" stroke-linecap="round"/>
</g>
<g filter="url(#filter22_f_5127_76075)">
<path d="M1546 -157C1426.98 179.153 1449.19 800.129 1575.24 844.772C1701.29 889.415 1899.96 653.1 2018.99 316.947C2138.01 -19.2053 2132.31 -327.901 2006.26 -372.545C1880.21 -417.188 1665.02 -493.153 1546 -157Z" fill="url(#paint15_linear_5127_76075)"/>
</g>
</g>
</g>
<defs>
<filter id="filter0_f_5127_76075" x="164.924" y="-491.357" width="1334.91" height="1334.91" filterUnits="userSpaceOnUse" color-interpolation-filters="sRGB">
<feFlood flood-opacity="0" result="BackgroundImageFix"/>
<feBlend mode="normal" in="SourceGraphic" in2="BackgroundImageFix" result="shape"/>
<feGaussianBlur stdDeviation="166.29" result="effect1_foregroundBlur_5127_76075"/>
</filter>
<filter id="filter1_f_5127_76075" x="-353.318" y="-817.009" width="1631.26" height="1488" filterUnits="userSpaceOnUse" color-interpolation-filters="sRGB">
<feFlood flood-opacity="0" result="BackgroundImageFix"/>
<feBlend mode="normal" in="SourceGraphic" in2="BackgroundImageFix" result="shape"/>
<feGaussianBlur stdDeviation="175.18" result="effect1_foregroundBlur_5127_76075"/>
</filter>
<filter id="filter2_f_5127_76075" x="-836.978" y="-954.167" width="1619.69" height="2227.44" filterUnits="userSpaceOnUse" color-interpolation-filters="sRGB">
<feFlood flood-opacity="0" result="BackgroundImageFix"/>
<feBlend mode="normal" in="SourceGraphic" in2="BackgroundImageFix" result="shape"/>
<feGaussianBlur stdDeviation="175.18" result="effect1_foregroundBlur_5127_76075"/>
</filter>
<filter id="filter3_f_5127_76075" x="605.9" y="-480.616" width="1233.31" height="1233.25" filterUnits="userSpaceOnUse" color-interpolation-filters="sRGB">
<feFlood flood-opacity="0" result="BackgroundImageFix"/>
<feBlend mode="normal" in="SourceGraphic" in2="BackgroundImageFix" result="shape"/>
<feGaussianBlur stdDeviation="153.632" result="effect1_foregroundBlur_5127_76075"/>
</filter>
<filter id="filter4_f_5127_76075" x="605.235" y="-594.312" width="949.367" height="983.572" filterUnits="userSpaceOnUse" color-interpolation-filters="sRGB">
<feFlood flood-opacity="0" result="BackgroundImageFix"/>
<feBlend mode="normal" in="SourceGraphic" in2="BackgroundImageFix" result="shape"/>
<feGaussianBlur stdDeviation="157.709" result="effect1_foregroundBlur_5127_76075"/>
</filter>
<filter id="filter5_f_5127_76075" x="923.105" y="-670.678" width="999.047" height="885.797" filterUnits="userSpaceOnUse" color-interpolation-filters="sRGB">
<feFlood flood-opacity="0" result="BackgroundImageFix"/>
<feBlend mode="normal" in="SourceGraphic" in2="BackgroundImageFix" result="shape"/>
<feGaussianBlur stdDeviation="48.5743" result="effect1_foregroundBlur_5127_76075"/>
</filter>
<filter id="filter6_f_5127_76075" x="732.173" y="-574.091" width="718.197" height="722.797" filterUnits="userSpaceOnUse" color-interpolation-filters="sRGB">
<feFlood flood-opacity="0" result="BackgroundImageFix"/>
<feBlend mode="normal" in="SourceGraphic" in2="BackgroundImageFix" result="shape"/>
<feGaussianBlur stdDeviation="63.0836" result="effect1_foregroundBlur_5127_76075"/>
</filter>
<filter id="filter7_f_5127_76075" x="651.645" y="-550.278" width="660.408" height="731.535" filterUnits="userSpaceOnUse" color-interpolation-filters="sRGB">
<feFlood flood-opacity="0" result="BackgroundImageFix"/>
<feBlend mode="normal" in="SourceGraphic" in2="BackgroundImageFix" result="shape"/>
<feGaussianBlur stdDeviation="63.0836" result="effect1_foregroundBlur_5127_76075"/>
</filter>
<filter id="filter8_f_5127_76075" x="716.079" y="-608.978" width="642.186" height="719.26" filterUnits="userSpaceOnUse" color-interpolation-filters="sRGB">
<feFlood flood-opacity="0" result="BackgroundImageFix"/>
<feBlend mode="normal" in="SourceGraphic" in2="BackgroundImageFix" result="shape"/>
<feGaussianBlur stdDeviation="63.0836" result="effect1_foregroundBlur_5127_76075"/>
</filter>
<filter id="filter9_f_5127_76075" x="141.586" y="-679.697" width="1259.34" height="1280.34" filterUnits="userSpaceOnUse" color-interpolation-filters="sRGB">
<feFlood flood-opacity="0" result="BackgroundImageFix"/>
<feBlend mode="normal" in="SourceGraphic" in2="BackgroundImageFix" result="shape"/>
<feGaussianBlur stdDeviation="157.709" result="effect1_foregroundBlur_5127_76075"/>
</filter>
<filter id="filter10_f_5127_76075" x="104.586" y="-68.4158" width="969.836" height="967.836" filterUnits="userSpaceOnUse" color-interpolation-filters="sRGB">
<feFlood flood-opacity="0" result="BackgroundImageFix"/>
<feBlend mode="normal" in="SourceGraphic" in2="BackgroundImageFix" result="shape"/>
<feGaussianBlur stdDeviation="157.709" result="effect1_foregroundBlur_5127_76075"/>
</filter>
<filter id="filter11_f_5127_76075" x="354.837" y="-540.696" width="872.584" height="1270.08" filterUnits="userSpaceOnUse" color-interpolation-filters="sRGB">
<feFlood flood-opacity="0" result="BackgroundImageFix"/>
<feBlend mode="normal" in="SourceGraphic" in2="BackgroundImageFix" result="shape"/>
<feGaussianBlur stdDeviation="63.0836" result="effect1_foregroundBlur_5127_76075"/>
</filter>
<filter id="filter12_f_5127_76075" x="380.112" y="-483.921" width="759.034" height="1156.53" filterUnits="userSpaceOnUse" color-interpolation-filters="sRGB">
<feFlood flood-opacity="0" result="BackgroundImageFix"/>
<feBlend mode="normal" in="SourceGraphic" in2="BackgroundImageFix" result="shape"/>
<feGaussianBlur stdDeviation="34.696" result="effect1_foregroundBlur_5127_76075"/>
</filter>
<filter id="filter13_f_5127_76075" x="512.339" y="-265.442" width="449.58" height="859.08" filterUnits="userSpaceOnUse" color-interpolation-filters="sRGB">
<feFlood flood-opacity="0" result="BackgroundImageFix"/>
<feBlend mode="normal" in="SourceGraphic" in2="BackgroundImageFix" result="shape"/>
<feGaussianBlur stdDeviation="39.1118" result="effect1_foregroundBlur_5127_76075"/>
</filter>
<filter id="filter14_f_5127_76075" x="717.201" y="-319.328" width="205.602" height="451.598" filterUnits="userSpaceOnUse" color-interpolation-filters="sRGB">
<feFlood flood-opacity="0" result="BackgroundImageFix"/>
<feBlend mode="normal" in="SourceGraphic" in2="BackgroundImageFix" result="shape"/>
<feGaussianBlur stdDeviation="23.3409" result="effect1_foregroundBlur_5127_76075"/>
</filter>
<filter id="filter15_f_5127_76075" x="708.06" y="131.279" width="172.142" height="248.642" filterUnits="userSpaceOnUse" color-interpolation-filters="sRGB">
<feFlood flood-opacity="0" result="BackgroundImageFix"/>
<feBlend mode="normal" in="SourceGraphic" in2="BackgroundImageFix" result="shape"/>
<feGaussianBlur stdDeviation="15.7709" result="effect1_foregroundBlur_5127_76075"/>
</filter>
<filter id="filter16_f_5127_76075" x="969.542" y="-171.24" width="413.424" height="307.674" filterUnits="userSpaceOnUse" color-interpolation-filters="sRGB">
<feFlood flood-opacity="0" result="BackgroundImageFix"/>
<feBlend mode="normal" in="SourceGraphic" in2="BackgroundImageFix" result="shape"/>
<feGaussianBlur stdDeviation="34.696" result="effect1_foregroundBlur_5127_76075"/>
</filter>
<filter id="filter17_f_5127_76075" x="1023.8" y="-142.481" width="428.629" height="317.657" filterUnits="userSpaceOnUse" color-interpolation-filters="sRGB">
<feFlood flood-opacity="0" result="BackgroundImageFix"/>
<feBlend mode="normal" in="SourceGraphic" in2="BackgroundImageFix" result="shape"/>
<feGaussianBlur stdDeviation="23.3409" result="effect1_foregroundBlur_5127_76075"/>
</filter>
<filter id="filter18_f_5127_76075" x="1059.14" y="-131.139" width="244.724" height="177.974" filterUnits="userSpaceOnUse" color-interpolation-filters="sRGB">
<feFlood flood-opacity="0" result="BackgroundImageFix"/>
<feBlend mode="normal" in="SourceGraphic" in2="BackgroundImageFix" result="shape"/>
<feGaussianBlur stdDeviation="17.0326" result="effect1_foregroundBlur_5127_76075"/>
</filter>
<filter id="filter19_f_5127_76075" x="627.85" y="-526.435" width="384.312" height="598.812" filterUnits="userSpaceOnUse" color-interpolation-filters="sRGB">
<feFlood flood-opacity="0" result="BackgroundImageFix"/>
<feBlend mode="normal" in="SourceGraphic" in2="BackgroundImageFix" result="shape"/>
<feGaussianBlur stdDeviation="29.6493" result="effect1_foregroundBlur_5127_76075"/>
</filter>
<filter id="filter20_f_5127_76075" x="773.251" y="-226.528" width="995.002" height="767.752" filterUnits="userSpaceOnUse" color-interpolation-filters="sRGB">
<feFlood flood-opacity="0" result="BackgroundImageFix"/>
<feBlend mode="normal" in="SourceGraphic" in2="BackgroundImageFix" result="shape"/>
<feGaussianBlur stdDeviation="63.0836" result="effect1_foregroundBlur_5127_76075"/>
</filter>
<filter id="filter21_f_5127_76075" x="773.251" y="-226.528" width="995.002" height="767.752" filterUnits="userSpaceOnUse" color-interpolation-filters="sRGB">
<feFlood flood-opacity="0" result="BackgroundImageFix"/>
<feBlend mode="normal" in="SourceGraphic" in2="BackgroundImageFix" result="shape"/>
<feGaussianBlur stdDeviation="63.0836" result="effect1_foregroundBlur_5127_76075"/>
</filter>
<filter id="filter22_f_5127_76075" x="1367.71" y="-512.779" width="836.949" height="1462.97" filterUnits="userSpaceOnUse" color-interpolation-filters="sRGB">
<feFlood flood-opacity="0" result="BackgroundImageFix"/>
<feBlend mode="normal" in="SourceGraphic" in2="BackgroundImageFix" result="shape"/>
<feGaussianBlur stdDeviation="50" result="effect1_foregroundBlur_5127_76075"/>
</filter>
<linearGradient id="paint0_linear_5127_76075" x1="969.241" y1="-121.754" x2="809.499" y2="554.652" gradientUnits="userSpaceOnUse">
<stop stop-color="#F49191"/>
<stop offset="1" stop-color="#B10E0E"/>
</linearGradient>
<linearGradient id="paint1_linear_5127_76075" x1="496.565" y1="54.9519" x2="178.839" y2="1009.1" gradientUnits="userSpaceOnUse">
<stop stop-color="#BC87FF"/>
<stop offset="1" stop-color="#0502A4"/>
</linearGradient>
<linearGradient id="paint2_linear_5127_76075" x1="431.754" y1="0" x2="431.754" y2="1558.45" gradientUnits="userSpaceOnUse">
<stop offset="0.729167" stop-color="white"/>
<stop offset="1" stop-color="white" stop-opacity="0"/>
</linearGradient>
<linearGradient id="paint3_linear_5127_76075" x1="435.815" y1="34.2042" x2="288.238" y2="659.103" gradientUnits="userSpaceOnUse">
<stop stop-color="#BC87FF"/>
<stop offset="1" stop-color="#0502A4"/>
</linearGradient>
<radialGradient id="paint4_radial_5127_76075" cx="0" cy="0" r="1" gradientUnits="userSpaceOnUse" gradientTransform="translate(920.209 8.75531) rotate(173.419) scale(302.897 497.008)">
<stop offset="0.245919" stop-color="#FF2E00"/>
<stop offset="1" stop-color="#3A54AF" stop-opacity="0"/>
</radialGradient>
<radialGradient id="paint5_radial_5127_76075" cx="0" cy="0" r="1" gradientUnits="userSpaceOnUse" gradientTransform="translate(888.709 8.75531) rotate(173.419) scale(302.897 497.008)">
<stop offset="0.245919" stop-color="#053CFD"/>
<stop offset="1" stop-color="#3A54AF" stop-opacity="0"/>
</radialGradient>
<linearGradient id="paint6_linear_5127_76075" x1="863.23" y1="350.089" x2="597.3" y2="-158.254" gradientUnits="userSpaceOnUse">
<stop stop-color="#FCFCFC" stop-opacity="0"/>
<stop offset="0.469129" stop-color="#FAFAFA" stop-opacity="0.859579"/>
<stop offset="1" stop-color="#F0F0F0" stop-opacity="0"/>
</linearGradient>
<linearGradient id="paint7_linear_5127_76075" x1="856.9" y1="87.4902" x2="711.244" y2="-176.797" gradientUnits="userSpaceOnUse">
<stop stop-color="#FCFCFC" stop-opacity="0"/>
<stop offset="0.469129" stop-color="#FAFAFA" stop-opacity="0.859579"/>
<stop offset="1" stop-color="#F0F0F0" stop-opacity="0"/>
</linearGradient>
<linearGradient id="paint8_linear_5127_76075" x1="837.704" y1="353.04" x2="793.88" y2="178.575" gradientUnits="userSpaceOnUse">
<stop stop-color="#FCFCFC" stop-opacity="0"/>
<stop offset="0.469129" stop-color="#FAFAFA" stop-opacity="0.859579"/>
<stop offset="1" stop-color="#F0F0F0" stop-opacity="0"/>
</linearGradient>
<linearGradient id="paint9_linear_5127_76075" x1="1292.43" y1="30.3631" x2="1249.78" y2="-122.935" gradientUnits="userSpaceOnUse">
<stop offset="0.00550889" stop-color="#AFCEFA"/>
<stop offset="1" stop-color="#DBEAFF"/>
</linearGradient>
<linearGradient id="paint10_linear_5127_76075" x1="1342.46" y1="110.443" x2="1273.7" y2="-64.0514" gradientUnits="userSpaceOnUse">
<stop offset="0.00550889" stop-color="#61309E"/>
<stop offset="1" stop-color="#CA9ADD"/>
</linearGradient>
<linearGradient id="paint11_linear_5127_76075" x1="1238.69" y1="6.54289" x2="1204.6" y2="-85.0982" gradientUnits="userSpaceOnUse">
<stop offset="0.00550889" stop-color="#61309E"/>
<stop offset="1" stop-color="#CA9ADD"/>
</linearGradient>
<linearGradient id="paint12_linear_5127_76075" x1="806.632" y1="-391.098" x2="656.635" y2="-53.9505" gradientUnits="userSpaceOnUse">
<stop stop-color="#38116A"/>
<stop offset="1" stop-color="#38116A" stop-opacity="0"/>
</linearGradient>
<linearGradient id="paint13_linear_5127_76075" x1="971.391" y1="-44.1272" x2="1366.22" y2="-44.3496" gradientUnits="userSpaceOnUse">
<stop stop-color="#9CC7F2"/>
<stop offset="1" stop-color="#E49CDD"/>
</linearGradient>
<linearGradient id="paint14_linear_5127_76075" x1="971.391" y1="-44.1272" x2="1366.22" y2="-44.3496" gradientUnits="userSpaceOnUse">
<stop stop-color="#9CC7F2"/>
<stop offset="1" stop-color="#E49CDD"/>
</linearGradient>
<linearGradient id="paint15_linear_5127_76075" x1="2006.25" y1="-372.545" x2="1575.14" y2="844.738" gradientUnits="userSpaceOnUse">
<stop offset="0.729167" stop-color="white"/>
<stop offset="1" stop-color="white" stop-opacity="0"/>
</linearGradient>
<clipPath id="clip0_5127_76075">
<rect width="1600" height="1000" fill="white"/>
</clipPath>
</defs>
</svg>
